<svg xmlns="http://www.w3.org/2000/svg" width="80" height="80" fill="none"><path stroke="#4277FF" stroke-width="4" d="M18 26h44v28H18z"/><mask id="a" fill="#fff"><path fill-rule="evenodd" d="M33.818 31a8 8 0 0 0-8 8v17h27.273v-9a8 8 0 0 0-8-8h-.636c-.655 0-1.28.126-1.853.355V39a8 8 0 0 0-8-8z" clip-rule="evenodd"/></mask><path fill="#4277FF" d="M25.818 56h-4v4h4zm27.273 0v4h4v-4zM42.6 39.355h-4v5.904l5.484-2.19zM29.819 39a4 4 0 0 1 4-4v-8c-6.627 0-12 5.373-12 12zm0 17V39h-8v17zm9.637-4H25.818v8h13.637zm3.147 0h-3.147v8h3.147zm10.489 0H42.6v8h10.49zm-4-5v9h8v-9zm-4-4a4 4 0 0 1 4 4h8c0-6.627-5.373-12-12-12zm-.636 0h.636v-8h-.636zm-.37.07a1 1 0 0 1 .37-.07v-8c-1.172 0-2.3.226-3.337.64zM38.602 39v.355h8V39zm-4-4a4 4 0 0 1 4 4h8c0-6.627-5.373-12-12-12zm-.784 0h.783v-8h-.783z" mask="url(#a)"/></svg>