<svg xmlns="http://www.w3.org/2000/svg" width="80" height="80" fill="none"><mask id="a" fill="#fff"><path fill-rule="evenodd" d="M26 20a7 7 0 0 0-7 7v19.981a7 7 0 0 0 7 7h8.721l3.64 5.207a2 2 0 0 0 3.278 0l3.64-5.207H54a7 7 0 0 0 7-7V27a7 7 0 0 0-7-7z" clip-rule="evenodd"/></mask><path fill="#FA5757" d="M34.721 53.981 38 51.69l-1.194-1.709H34.72zm3.64 5.207 3.278-2.292zm3.278 0-3.278-2.292zm3.64-5.207v-4h-2.085L42 51.69zM23 27a3 3 0 0 1 3-3v-8c-6.075 0-11 4.925-11 11zm0 19.981V27h-8v19.981zm3 3a3 3 0 0 1-3-3h-8c0 6.075 4.925 11 11 11zm8.721 0H26v8h8.721zm6.918 6.915L38 51.69l-6.556 4.583 3.64 5.206zm-3.278 0a2 2 0 0 1 3.278 0l-6.557 4.583c2.389 3.417 7.447 3.417 9.836 0zM42 51.69l-3.64 5.206 6.557 4.583 3.64-5.206zm12-1.71h-8.721v8H54zm3-3a3 3 0 0 1-3 3v8c6.075 0 11-4.925 11-11zM57 27v19.981h8V27zm-3-3a3 3 0 0 1 3 3h8c0-6.075-4.925-11-11-11zm-28 0h28v-8H26z" mask="url(#a)"/><path stroke="#FA5757" stroke-width="4" d="M23 36.99h34m-30 7.552h13"/></svg>