<svg xmlns="http://www.w3.org/2000/svg" width="80" height="80" fill="none"><path fill="#F9F9F9" d="M21.065 62.132a4.7 4.7 0 0 1-1.694-.297 4.1 4.1 0 0 1-1.342-.836 3.9 3.9 0 0 1-.88-1.265 4 4 0 0 1-.308-1.584q0-.858.308-1.584.319-.726.89-1.265a4.1 4.1 0 0 1 1.343-.836 4.6 4.6 0 0 1 1.672-.297q.913 0 1.672.297.77.297 1.33.836a3.84 3.84 0 0 1 1.21 2.849q0 .858-.318 1.595-.32.726-.891 1.265a4 4 0 0 1-1.331.825 4.5 4.5 0 0 1-1.661.297m-.011-1.518q.517 0 .946-.176.44-.176.77-.506t.506-.781q.186-.45.187-1.001 0-.55-.187-1.001a2.2 2.2 0 0 0-.506-.781 2.15 2.15 0 0 0-.76-.506 2.6 2.6 0 0 0-.956-.176q-.518 0-.957.176a2.3 2.3 0 0 0-.76.506q-.33.33-.516.781-.176.45-.176 1.001 0 .54.176 1.001.186.45.506.781.33.33.77.506t.957.176M27.306 62v-7.7h1.474l4.543 5.544h-.715V54.3h1.76V62h-1.463l-4.554-5.544h.715V62zm9.584 0v-7.7h1.782v6.248h3.86V62zm7.338 0v-7.7h1.782V62zm4.31 0v-7.7h1.474l4.543 5.544h-.715V54.3h1.76V62h-1.463l-4.554-5.544h.715V62zm11.223-4.598h3.706v1.386h-3.706zm.131 3.168h4.191V62h-5.962v-7.7h5.82v1.43h-4.049z"/><path stroke="#fff" stroke-width="2" d="M31 19h6v30h-6a7 7 0 0 1-7-7V26a7 7 0 0 1 7-7Z"/><path fill="#fff" d="M41 18h6a8 8 0 0 1 8 8v16a8 8 0 0 1-8 8h-6z"/><circle cx="48" cy="35" r="3" fill="#FF2424"/><circle cx="31" cy="28" r="3" fill="#fff"/></svg>