<svg xmlns="http://www.w3.org/2000/svg" width="32" height="32" fill="none"><path fill="#fff" d="M10.06 15.14a6.002 6.002 0 0 1 10.202-3.365L20.5 12h-1.497a.999.999 0 1 0 0 2h4a1 1 0 0 0 1-1V9a.999.999 0 1 0-2 0v1.669l-.353-.335A8 8 0 0 0 8.08 14.86a.998.998 0 1 0 1.978.285zm13.859 2a1 1 0 0 0-.847-1.13 1 1 0 0 0-1.131.846 6.003 6.003 0 0 1-10.185 3.385l-.019-.02-.237-.224h1.497a.999.999 0 1 0 0-2L9 18a1 1 0 0 0-.71.297 1 1 0 0 0-.29.712l.031 3.97a.997.997 0 0 0 1.01.99 1 1 0 0 0 .99-1.01l-.012-1.609.334.316A8 8 0 0 0 23.92 17.14"/></svg>