<svg xmlns="http://www.w3.org/2000/svg" width="81" height="80" fill="none"><circle cx="40" cy="40" r="14" stroke="#DDD" stroke-width="4"/><path fill="#DDD" fill-rule="evenodd" d="M33.047 30.219a12 12 0 0 0-2.828 2.828l-7.19-7.19 2.829-2.828zM38 28.165a12.1 12.1 0 0 1 4 0V18h-4zm8.953 2.052a12 12 0 0 1 2.828 2.829l7.19-7.19-2.829-2.828zM51.834 38a12.1 12.1 0 0 1 0 4H62v-4zm-2.053 8.953a12 12 0 0 1-2.828 2.828l7.19 7.19 2.828-2.829zM42 51.834a12.1 12.1 0 0 1-4 0V62h4zm-8.953-2.053a12 12 0 0 1-2.828-2.828l-7.19 7.19 2.829 2.828zM28.166 42a12.1 12.1 0 0 1 0-4H18v4z" clip-rule="evenodd"/></svg>