<svg xmlns="http://www.w3.org/2000/svg" width="28" height="20" fill="none"><g fill="#FEFEFE" clip-path="url(#a)"><path d="M28.02 7.456c-1.663-2.294-3.761-4.151-6.145-5.44A16.54 16.54 0 0 0 14.231.002a16.5 16.5 0 0 0-7.688 1.795C4.13 3.017 1.99 4.814.275 7.06l2.002 1.887C3.742 7.03 5.57 5.494 7.63 4.452a14.1 14.1 0 0 1 6.568-1.534c2.264.032 4.493.62 6.529 1.72s3.828 2.688 5.248 4.647z"/><path d="M23.365 11.935C22.24 10.34 20.811 9.04 19.181 8.13a11.4 11.4 0 0 0-5.244-1.46 11.3 11.3 0 0 0-5.303 1.164c-1.67.817-3.155 2.035-4.351 3.565l1.825 1.761a10.1 10.1 0 0 1 3.5-2.868 9.1 9.1 0 0 1 4.268-.936 9.2 9.2 0 0 1 4.22 1.174 10.26 10.26 0 0 1 3.366 3.061z"/><path d="M18.243 15.286a6 6 0 0 0-1.947-1.445A5.5 5.5 0 0 0 14 13.333c-.788 0-1.568.173-2.296.508a6 6 0 0 0-1.947 1.445L14 20z"/></g><defs><clipPath id="a"><path fill="#fff" d="M0 0h28v20H0z"/></clipPath></defs></svg>